<svg id="Capa_1" data-name="Capa 1" xmlns="http://www.w3.org/2000/svg" viewBox="0 0 1061.97 183.98"><defs><style>.cls-1{fill:#fff;}</style></defs><title>logo_cds</title><path class="cls-1" d="M158.27,39.42a1.86,1.86,0,0,1-1.86,1.87,1.81,1.81,0,0,1-1.28-.51,85.71,85.71,0,0,0-63.45-22.6C55.76,20.41,30,39.58,31.69,66.74A38,38,0,0,0,88.43,97.37c7.42-4.23,14.17-4.62,20.37-2.93a25.69,25.69,0,0,1,15.63,12.1,24.14,24.14,0,0,1,3.3,10.42c1.48,23.71-26,35.28-49.15,36.61a73.9,73.9,0,0,1-23.69-2.51A73.69,73.69,0,0,1,1.84,93.24,1.88,1.88,0,0,1,3.66,91a1.83,1.83,0,0,1,1.71,1.14l.05.06A67.07,67.07,0,0,0,8.85,99c18,31.46,59.82,46.57,96.17,25.6a6.08,6.08,0,0,0-6-10.56c-30.35,17.32-64.74,4.8-79.5-21A57.7,57.7,0,0,1,41,14.3C62.15,2.22,85.8-1.29,109.62,5.23A88.73,88.73,0,0,1,158,38.44,1.85,1.85,0,0,1,158.27,39.42Zm11.43,51.22A73.77,73.77,0,0,0,92.94,30.16C71.19,31.4,41.79,42.59,43.81,67a24.88,24.88,0,0,0,3.28,10.18A25.69,25.69,0,0,0,62.71,89.3c6.19,1.69,13,1.31,20.37-2.93A38,38,0,0,1,139.81,117c1.69,27.18-24.06,46.34-60,48.58a85.68,85.68,0,0,1-63.59-22.74,1.85,1.85,0,0,0-3,1.42,1.78,1.78,0,0,0,.27.94,88.7,88.7,0,0,0,48.42,33.31c23.82,6.52,47.48,3,68.64-9.07A57.71,57.71,0,0,0,152,90.72c-14.78-25.85-49.14-38.37-79.51-21a6.07,6.07,0,0,1-6-10.56c36.49-21.06,78.12-6,96.18,25.6a71,71,0,0,1,3.41,6.85.38.38,0,0,1,.05.08,1.87,1.87,0,0,0,3.59-.73A1.18,1.18,0,0,0,169.69,90.64Z"/><path class="cls-1" d="M211.83,98.6c0,14.35,9.83,25,22.87,25,8.61,0,14.13-3.53,20.23-9.23a1.74,1.74,0,0,1,2.43.05l8.42,8.52a1.74,1.74,0,0,1,0,2.43c-9.26,9.64-18.68,13.75-31.52,13.75-22.25,0-39.68-17.62-39.68-40.11,0-23.2,17.29-40.54,40.22-40.54,15.63,0,24.14,6.12,30.41,12.1a1.74,1.74,0,0,1,.11,2.41l-8.42,9.7a1.74,1.74,0,0,1-2.51.13c-6.56-6.09-12.63-8.8-19.7-8.8C221.66,74,211.83,84.59,211.83,98.6Zm75.41-20.5H274.35a1.75,1.75,0,0,0-1.74,1.75v56.27a1.75,1.75,0,0,0,1.74,1.75h12.89a1.75,1.75,0,0,0,1.75-1.75V79.85A1.75,1.75,0,0,0,287.24,78.1ZM289.41,59a1.75,1.75,0,0,0-1.74-1.75H273.81A1.75,1.75,0,0,0,272.07,59V71.21A1.75,1.75,0,0,0,273.81,73h13.85a1.75,1.75,0,0,0,1.74-1.75ZM320.28,139a21,21,0,0,0,15.84-6.71v3.79a1.75,1.75,0,0,0,1.75,1.75h12.89a1.75,1.75,0,0,0,1.75-1.75V79.85a1.75,1.75,0,0,0-1.75-1.75H337.86a1.75,1.75,0,0,0-1.75,1.75V111.6c0,7.54-4.19,12.22-10.94,12.22s-10.3-4.26-10.3-12v-32a1.75,1.75,0,0,0-1.75-1.75h-12.9a1.75,1.75,0,0,0-1.75,1.75v35.81C298.5,130.07,306.84,139,320.28,139Zm85.9-82.46h12.89a1.75,1.75,0,0,1,1.75,1.75v77.79a1.75,1.75,0,0,1-1.75,1.75H406.18a1.75,1.75,0,0,1-1.75-1.75V131.6A23.14,23.14,0,0,1,387,139c-13.5,0-27.85-10.85-27.85-30.95,0-20.53,14-31.16,27.85-31.16A24,24,0,0,1,404.43,84V58.32A1.75,1.75,0,0,1,406.18,56.57Zm-16.09,35c-8.51,0-14.45,6.69-14.45,16.26s6.21,16.48,14.45,16.48c7.16,0,14.56-6.08,14.56-16.26C404.64,97.31,397.14,91.61,390.08,91.61Zm60.85,7.91a49,49,0,0,1,13.76,1.73c-.49-6-4.54-9-12.06-9a37.49,37.49,0,0,0-15.42,3.38,1.75,1.75,0,0,1-2.32-1l-3.51-10.34a1.74,1.74,0,0,1,.94-2.15,49.78,49.78,0,0,1,22.13-4.84c17.07,0,26.47,9.06,26.47,25.51v33.36a1.75,1.75,0,0,1-1.75,1.75H466.39a1.74,1.74,0,0,1-1.74-1.75v-2.72A25.14,25.14,0,0,1,448.17,139c-12.82,0-21.78-7.86-21.78-19.12C426.39,107.07,435.56,99.52,450.94,99.52Zm2.88,12.55c-3.35,0-11.15.68-11.15,7,0,5.06,4.92,6.78,9.13,6.78,7.76,0,13.18-4.15,13.18-10.08v-2A36.35,36.35,0,0,0,453.82,112.07Zm94.57-53.75v77.79a1.75,1.75,0,0,1-1.75,1.75H533.74a1.75,1.75,0,0,1-1.75-1.75V131.6A23.14,23.14,0,0,1,514.56,139c-13.5,0-27.85-10.85-27.85-30.95,0-20.53,14-31.16,27.85-31.16A24,24,0,0,1,532,84V58.32a1.75,1.75,0,0,1,1.75-1.75h12.89A1.75,1.75,0,0,1,548.39,58.32ZM517.65,91.61c-8.51,0-14.45,6.69-14.45,16.26s6.21,16.48,14.45,16.48c7.16,0,14.56-6.08,14.56-16.26C532.21,97.31,524.71,91.61,517.65,91.61ZM578.59,108c0-20.53,14-31.16,27.85-31.16A24,24,0,0,1,623.88,84V58.27a1.75,1.75,0,0,1,1.75-1.75h12.89a1.75,1.75,0,0,1,1.75,1.75v77.79a1.75,1.75,0,0,1-1.75,1.74H625.63a1.75,1.75,0,0,1-1.75-1.74v-4.52A23.14,23.14,0,0,1,606.44,139C592.94,139,578.59,128.13,578.59,108Zm30.94,16.26c7.16,0,14.56-6.08,14.56-16.26,0-10.78-7.5-16.48-14.56-16.48-8.51,0-14.45,6.69-14.45,16.26S601.29,124.3,609.53,124.3Zm66.29-47.42c19.83,0,28.71,16.08,28.71,32,0,1.13-.09,2.26-.2,3.48l0,.29a1.75,1.75,0,0,1-1.74,1.6H663.36c1.76,6.8,6.89,10.79,14.07,10.79,5.44,0,9.5-1.8,14-6.21a1.74,1.74,0,0,1,2.38-.06l7.57,6.71a1.74,1.74,0,0,1,.18,2.42c-6.18,7.42-14.38,11.18-24.36,11.18-17.74,0-30.63-13-30.63-30.94S659.15,76.88,675.82,76.88ZM688,102.24c-1.14-5.78-4.83-11.32-12.26-11.32-6.17,0-10.92,4.38-12.51,11.32Zm38.26,35.57a1.75,1.75,0,0,0,1.75-1.74V58.27a1.75,1.75,0,0,0-1.75-1.75H713.34a1.75,1.75,0,0,0-1.74,1.75v77.79a1.75,1.75,0,0,0,1.74,1.74Zm70.34-14c-8.2,0-14.9-2.77-22.41-9.27a1.72,1.72,0,0,0-1.28-.42,1.75,1.75,0,0,0-1.2.61l-7.89,9.38a1.74,1.74,0,0,0,.17,2.42,47.8,47.8,0,0,0,32.28,12.38c17.25,0,28.39-9.43,28.39-24.23,0-15.28-12.17-20.34-25.32-23.54C784.58,87.58,783,85.23,783,80.86s4.18-7.1,10.4-7.1,12.6,2.4,19.2,7.33A1.75,1.75,0,0,0,815,80.7l7-9.91a1.75,1.75,0,0,0-.33-2.37,43.31,43.31,0,0,0-28.16-9.76c-16,0-27.22,9.61-27.22,23.59,0,14.76,9.59,20,26.18,24,14.41,3.32,15.48,6,15.48,9.92C808,120.77,803.54,123.77,796.57,123.77ZM856.15,77.2c17.07,0,26.47,9.06,26.47,25.51v33.36a1.75,1.75,0,0,1-1.75,1.74H868.08a1.75,1.75,0,0,1-1.75-1.74v-2.72A25.15,25.15,0,0,1,849.86,139c-12.82,0-21.78-7.86-21.78-19.12,0-12.85,9.18-20.4,24.55-20.4a49.09,49.09,0,0,1,13.77,1.74c-.5-6-4.55-9-12.06-9a37.46,37.46,0,0,0-15.42,3.38,1.75,1.75,0,0,1-2.32-1l-3.52-10.34A1.74,1.74,0,0,1,834,82,49.8,49.8,0,0,1,856.15,77.2ZM855.5,112c-3.35,0-11.15.68-11.15,7,0,5.06,4.91,6.78,9.12,6.78,7.76,0,13.18-4.15,13.18-10.08v-2A36.39,36.39,0,0,0,855.5,112Zm97.45-4.2c0,20.53-14.07,31.16-28,31.16a24,24,0,0,1-17.33-7v4.11a1.74,1.74,0,0,1-1.74,1.74H893a1.75,1.75,0,0,1-1.75-1.74V58.27A1.75,1.75,0,0,1,893,56.52h12.9a1.75,1.75,0,0,1,1.74,1.75v26A23,23,0,0,1,925,76.88C943.15,76.88,953,92.82,953,107.82ZM922,91.56c-8.36,0-14.67,7-14.67,16.26,0,9.49,6.3,16.48,14.67,16.48s14.34-6.69,14.34-16.26S930.32,91.56,922,91.56Zm92.33,17.33c0,1.13-.09,2.26-.2,3.48l0,.29a1.74,1.74,0,0,1-1.74,1.6H973.16c1.76,6.8,6.89,10.79,14.06,10.79,5.44,0,9.5-1.8,14-6.21a1.74,1.74,0,0,1,2.38-.06l7.56,6.71a1.74,1.74,0,0,1,.18,2.42c-6.18,7.42-14.38,11.18-24.36,11.18-17.75,0-30.63-13-30.63-30.94S969,76.88,985.63,76.88C1005.46,76.88,1014.34,93,1014.34,108.89ZM973,102.24h24.77c-1.14-5.78-4.83-11.32-12.26-11.32C979.36,90.92,974.6,95.3,973,102.24Zm62.28-24.19H1022.4a1.75,1.75,0,0,0-1.75,1.75v56.27a1.75,1.75,0,0,0,1.75,1.74h12.89a1.75,1.75,0,0,0,1.75-1.74V114.64c0-13,6.35-20.53,17.44-20.53h.74a1.75,1.75,0,0,0,1.75-1.75V78.73A1.75,1.75,0,0,0,1055.3,77,20.47,20.47,0,0,0,1037,85.77v-6A1.75,1.75,0,0,0,1035.29,78.05Z"/></svg>